# xmcd
#
# Track frame offsets: 
#        183
#        10310
#        23180
#        32410
#        42593
#        51743
#        61150
#        72928
#        83478
#        93220
#        104433
#        117945
#        127843
#        137285
#
# Disc length: 1984 seconds
#
# Revision: 0
# Processed by: cddbd v1.5.2PL0 Copyright (c) Steve Scherf et al.
# Submitted via: ExactAudioCopy v0.95b4
#
DISCID=b007be0e
DTITLE=Various Artist - Bop Till You Drop - 14 Rock and Roll Classics
DYEAR=1992
DGENRE=Rock and Roll
TTITLE0=Carl Perkins - Blue Suede Shoes
TTITLE1=Jerry Lee Lewis - Whole Lotta Shakin' Goin' On
TTITLE2=Gene Vincent - Race With The Devil
TTITLE3=Dale Hawkins - Suzie Q
TTITLE4=Roy Orbison - Rockhouse
TTITLE5=Shakin' Stevens and The Sunsets - Rock Around With Ollie Vee
TTITLE6=Gene Vincent - Be Bop A Lula
TTITLE7=Beatles - Three Cool Cats
TTITLE8=Carl Perkins - Matchbox
TTITLE9=Bo Diddley - Who Do You Love
TTITLE10=Jerry Lee Lewis - High Scholl Confidential
TTITLE11=Roy Orbison - Ooby Dooby
TTITLE12=Buddy Knox - Party Doll
TTITLE13=Shakin' Stevens and The Sunsets - Baby Blue
EXTD=
EXTT0=
EXTT1=
EXTT2=
EXTT3=
EXTT4=
EXTT5=
EXTT6=
EXTT7=
EXTT8=
EXTT9=
EXTT10=
EXTT11=
EXTT12=
EXTT13=
PLAYORDER=
